<svg xmlns="http://www.w3.org/2000/svg" viewBox="0 0 512.005 512.005">
    <path fill="#fedac6" d="M307.201 298.679H204.804v213.326h102.397V341.344z"/>
    <path d="M136.028 350.474c-33.902 4.531-59.219 33.458-59.219 67.667v93.863h127.996v-170.66l-68.777 9.13zM435.197 418.142c0-34.209-25.318-63.136-59.219-67.667l-68.776-9.13v170.661h127.996v-93.864z" fill="#de4c3c"/>
    <path d="M204.804 381.791v130.214h102.397V381.791c-29.286 25.735-73.111 25.735-102.397 0z" fill="#ebebeb"/>
    <path d="M307.201 298.679H204.804v83.112c29.285 25.727 73.111 25.727 102.397 0v-83.112z" fill="#fedac6"/>
    <path d="M238.936 399.113c-12.62-2.748-24.353-8.618-34.132-17.066v129.958h34.132V399.113z" fill="#dbdbdb"/>
    <path d="M307.201 332.811v-34.132H204.804v34.132c38.399 17.066 63.998 17.066 102.397 0z" fill="#f5c4b0"/>
    <path d="M258.562 17.088c-42.418-.009-79.852 27.698-92.242 68.264h184.314c-12.347-40.523-49.705-68.221-92.072-68.264z" fill="#a15d30"/>
    <path d="M166.32 85.353c-4.147 13.499-5.231 27.758-3.157 41.727l1.28 9.472v85.33c0 51.838 42.025 93.864 93.864 93.864s93.864-42.025 93.864-93.864v-85.33l.683-2.901c3.447-16.017 2.679-32.656-2.219-48.297l-184.315-.001z" fill="#fedac6"/>
    <path d="M196.271 85.353v8.533H348.33c-15.505-50.9-69.331-79.588-120.231-64.083-30.702 9.352-54.731 33.381-64.083 64.083h32.255v-8.533zM196.271 93.886h-32.255c-4.139 13.499-5.248 27.749-3.243 41.727l1.365 9.472c.001-.001 34.133-17.067 34.133-51.199zM348.33 93.886h-32.596c0 34.132 34.132 51.198 34.132 51.198l.597-2.901c3.422-16.017 2.688-32.639-2.133-48.297z" fill="#a15d30"/>
    <path d="M196.271 218.809V93.886c0 34.132-34.132 51.198-34.132 51.198v85.33c-.009 41.59 27.357 78.231 67.24 90.024l-21.247-46.846c-7.825-17.203-11.869-35.882-11.861-54.783z" fill="#f5c4b0"/>
    <path d="M358.399 145.084h-8.533v51.198h8.533c14.139 0 25.599-11.46 25.599-25.599s-11.46-25.599-25.599-25.599z" fill="#fedac6"/>
    <path d="M128.007 170.683c0 14.139 11.46 25.599 25.599 25.599h8.533v-51.198h-8.533c-14.139 0-25.599 11.46-25.599 25.599z" fill="#f5c4b0"/>
    <path fill="#91542b" d="M247.461 25.604h17.066v68.264h-17.066zM229.954 91.207l-16.19 5.397L196.698 45.4l16.19-5.396zM323.358 46.505l-25.597 51.194-15.263-7.632 25.596-51.194z"/>
    <path d="M321.024 219.833c-2.108 4.215-7.236 5.922-11.451 3.806-.887-.444-1.69-1.041-2.372-1.758-11.076-10.973-26.051-17.109-41.641-17.066h-18.687c-15.999.017-31.342 6.366-42.665 17.663-3.319 3.345-8.721 3.371-12.066.06-.555-.546-1.033-1.169-1.416-1.852l-28.586-51.625v61.353c0 51.838 42.025 93.864 93.864 93.864s93.864-42.025 93.864-93.864V162.15l-28.844 57.683z" fill="#a15d30"/>
    <path d="M196.271 224.697c-2.33-.503-4.335-1.954-5.546-4.011l-28.586-51.625v61.353c.034 36.095 20.769 68.973 53.332 84.563-12.561-22.911-19.165-48.621-19.199-74.749v-15.531zM315.734 8.555c-12.185.009-23.432 6.519-29.524 17.066l52.137 42.665c14.139-12.467 15.487-34.038 3.021-48.178-6.486-7.355-15.821-11.561-25.634-11.553z" fill="#8f4f24"/>
    <path fill="#ad3228" d="M153.597 349.86h51.198v162.128h-51.198zM110.941 512.005H76.808V392.542l34.133-34.132z"/>
    <path fill="#ad3228" d="M110.932 401.058h42.665v42.665h-42.665z"/>
    <path fill="#7d241d" d="M153.597 401.058h42.665v42.665h-42.665zM76.8 401.058h34.132v42.665H76.8zM154.109 486.389h42.665v25.599h-42.665z"/>
    <path fill="#ad3228" d="M307.192 349.86h51.198v162.128h-51.198zM401.064 512.005h34.133V392.542l-34.133-34.132zM358.391 401.058h42.665v42.665h-42.665z"/>
    <path fill="#7d241d" d="M315.725 401.058h42.665v42.665h-42.665zM401.056 401.058h34.132v42.665h-34.132zM315.222 486.389h42.665v25.599h-42.665zM76.8 486.389h34.132v25.599H76.8z"/>
    <path fill="#ad3228" d="M110.932 486.389h42.665v25.599h-42.665z"/>
    <path fill="#7d241d" d="M401.056 486.389h34.132v25.599h-34.132z"/>
    <path fill="#ad3228" d="M358.391 486.389h42.665v25.599h-42.665z"/>
    <path d="M165.953 152.721l-7.637-15.266 3.814 7.637-3.84-7.62c.299-.154 29.439-15.283 29.439-43.578h17.066c.009 38.954-37.255 58.033-38.842 58.827zM346.052 152.721c-1.587-.794-38.851-19.873-38.851-58.835h17.066c0 28.296 29.14 43.425 29.439 43.578l-7.654 15.257z"/>
    <path d="M170.663 85.336h170.661v17.066H170.663zM344.004 74.678l-11.298-12.783c2.082-1.843 3.84-4.002 5.231-6.408 7.057-12.219 2.859-27.912-9.369-34.968-12.228-7.048-27.912-2.859-34.968 9.369l-14.779-8.533c5.7-9.873 14.899-16.93 25.906-19.882 11.016-2.952 22.519-1.434 32.374 4.267 20.377 11.767 27.374 37.912 15.616 58.289-2.313 4.01-5.249 7.594-8.713 10.649z"/>
    <circle cx="204.796" cy="162.133" r="17.066"/>
    <circle cx="307.192" cy="162.133" r="17.066"/>
    <path d="M264.536 213.348h-25.599c-2.739 0-5.316-1.314-6.92-3.55-1.604-2.227-2.039-5.086-1.178-7.688l17.066-51.198 16.187 5.401-13.329 39.969h13.764v17.066h.009zM240.396 256.014h-1.451v-17.066h1.451c13.286-.009 25.778-5.18 35.182-14.574l12.066 12.074c-12.63 12.611-29.406 19.557-47.248 19.566zM358.399 204.815h-8.533v-17.066h8.533c9.412 0 17.066-7.654 17.066-17.066s-7.654-17.066-17.066-17.066h-8.533v-17.066h8.533c18.824 0 34.132 15.308 34.132 34.132s-15.308 34.132-34.132 34.132zM162.139 204.815h-8.533c-18.824 0-34.132-15.308-34.132-34.132s15.308-34.132 34.132-34.132h8.533v17.066h-8.533c-9.412 0-17.066 7.654-17.066 17.066s7.654 17.066 17.066 17.066h8.533v17.066z"/>
    <path d="M198.166 233.555c-1.519 0-3.046-.205-4.557-.623-4.395-1.212-8.055-4.07-10.308-8.03l-28.577-49.978 14.813-8.465 28.586 50.004c13.064-12.996 30.352-20.155 48.732-20.172h18.858c17.911 0 34.764 6.937 47.478 19.541l29.038-57.513 15.231 7.688-29.012 57.513c-.811 1.613-1.877 3.098-3.166 4.386-3.208 3.217-7.492 5-12.049 5.009h-.026c-4.548 0-8.832-1.766-12.049-4.975-9.472-9.386-22.075-14.574-35.446-14.574h-18.85c-13.832.009-26.845 5.401-36.641 15.172-1.058 1.067-2.295 2.014-3.644 2.79-2.609 1.467-5.493 2.227-8.411 2.227z"/>
    <path d="M256.003 332.811c-56.463 0-102.397-45.933-102.397-102.397v-84.716l-1.28-8.866v-.017c-.683-4.796-1.033-9.676-1.041-14.506-.145-57.879 46.821-105.076 104.7-105.221 7.287-.034 14.975.759 22.305 2.338 56.54 12.134 92.652 68.008 80.526 124.548l-.41 1.98v84.452c-.007 56.472-45.94 102.405-102.403 102.405zm-86.782-198.393l1.365 9.446c.06.401.085.811.085 1.22v85.33c0 47.051 38.279 85.33 85.33 85.33s85.331-38.271 85.331-85.33v-85.33c0-.58.06-1.16.179-1.732l.597-2.901c10.171-47.401-20.07-94.179-67.403-104.351-6.127-1.314-12.586-1.997-18.67-1.954-48.468.119-87.797 39.645-87.677 88.104.002 4.061.292 8.149.863 12.168z"/>
    <path d="M85.342 512.005H68.275v-93.863c0-38.313 28.637-71.038 66.626-76.123l61.37-8.149v-26.657h17.066v34.132c0 4.275-3.166 7.893-7.407 8.456l-68.776 9.13c-29.533 3.951-51.813 29.396-51.813 59.202l.001 93.872zM443.73 512.005h-17.066v-93.863c0-29.806-22.271-55.26-51.821-59.202l-68.768-9.13c-4.241-.563-7.407-4.181-7.407-8.456V307.22h17.066v26.657l61.361 8.149c37.989 5.077 66.635 37.81 66.635 76.123v93.856zM256.037 409.608h-.077c-20.897 0-41.07-7.603-56.787-21.409l11.255-12.817c12.603 11.067 28.773 17.16 45.532 17.16h.06c16.776 0 32.938-6.093 45.541-17.16l11.264 12.817c-15.71 13.807-35.882 21.409-56.788 21.409z"/>
    <path d="M196.263 341.327h17.066v170.661h-17.066zM298.659 341.327h17.066v170.661h-17.066z"/>
    <path d="M204.804 443.741h-51.198c-2.662 0-5.162-1.246-6.784-3.353-1.613-2.116-2.15-4.864-1.451-7.424L170.97 339.1l16.469 4.48-22.664 83.086h40.029v17.075zM358.399 443.741h-51.198v-17.066h40.02l-22.655-83.086 16.469-4.48 25.599 93.864c.7 2.56.171 5.308-1.451 7.424-1.613 2.098-4.122 3.344-6.784 3.344zM174.939 486.406c-7.057 0-12.8-5.743-12.8-12.8s5.743-12.8 12.8-12.8 12.8 5.743 12.8 12.8c-.001 7.057-5.744 12.8-12.8 12.8zm0-17.066c-2.355 0-4.267 1.92-4.267 4.267 0 2.347 1.911 4.267 4.267 4.267 2.355 0 4.267-1.92 4.267-4.267-.001-2.347-1.912-4.267-4.267-4.267z"/>
</svg>
