<svg xmlns="http://www.w3.org/2000/svg" viewBox="0 0 211.49 178.86"><defs><style>.cls-1{isolation:isolate;}.cls-2{fill:#64b4c7;}.cls-3{fill:#fff9ed;}.cls-4{fill:#fccf66;}.cls-5{fill:#e96e67;}.cls-6{fill:#ffdea6;mix-blend-mode:screen;}.cls-7{fill:#fdf7e0;}.cls-8{fill:#f7e9de;}.cls-9{fill:#612f4c;}</style></defs><title>MAKAIRA-Logo-M-Regular</title><g class="cls-1"><g id="Layer_1" data-name="Layer 1"><g id="Logos"><g id="M"><g id="Logo"><path class="cls-2" d="M74,59.45c5.47-12.21,15.22-20.9,26-24.54a44.92,44.92,0,0,1,9.23-5.66c-15.28-8.49-33.94-7.1-45.9,4.72C48.46,48.64,49.58,73.82,65.8,90.21a45.45,45.45,0,0,0,7.81,6.32C68.55,85.86,68.27,72.19,74,59.45Z"/><path class="cls-3" d="M92.62,93A33,33,0,0,0,108,101.74a34.54,34.54,0,0,0,14-8.42c14.83-14.67,13.71-39.85-2.51-56.24a46,46,0,0,0-4.34-3.84A34.49,34.49,0,0,0,100,34.91,46.88,46.88,0,0,0,96,38.37C80,54.31,78.47,78.77,92.62,93Z"/><path class="cls-4" d="M108,101.74c-11,3.48-23.71,1.67-34.39-5.21a32.8,32.8,0,0,0,16.21,16.19c15.07,6.75,33,.68,44.2-13.59A39.76,39.76,0,0,1,108,101.74Z"/><path class="cls-5" d="M150.71,35.32c-10.66-10.73-27.16-12.6-41.52-6.07a45.31,45.31,0,0,1,6,4,31.44,31.44,0,0,1,9.09,2.52c18.26,8.16,25.35,32,15.84,53.27A48.61,48.61,0,0,1,134,99.13,45.3,45.3,0,0,0,147.29,90C163.33,74,164.86,49.56,150.71,35.32Z"/><path class="cls-6" d="M124.25,35.76a31.44,31.44,0,0,0-9.09-2.52,46,46,0,0,1,4.34,3.84c16.22,16.39,17.34,41.57,2.51,56.24a34.54,34.54,0,0,1-14,8.42c.46.12.93.22,1.39.32l.26.06c.44.09.88.17,1.33.24l.3,0,1.36.19.27,0c.47.05,1,.1,1.43.13h.13A41,41,0,0,0,134,99.13,48.61,48.61,0,0,0,140.09,89C149.6,67.78,142.51,43.92,124.25,35.76Z"/><path class="cls-7" d="M96,38.37A46.88,46.88,0,0,1,100,34.91C89.19,38.55,79.44,47.24,74,59.45c-5.7,12.74-5.42,26.41-.36,37.08,10.68,6.88,23.38,8.69,34.39,5.21A33,33,0,0,1,92.62,93C78.47,78.77,80,54.31,96,38.37Z"/><path class="cls-8" d="M115.16,33.24a45.31,45.31,0,0,0-6-4h0A44.92,44.92,0,0,0,100,34.91,34.49,34.49,0,0,1,115.16,33.24Z"/><path class="cls-9" d="M101,146.05h2.15v1.61H101Zm-12.8-13.66a3.68,3.68,0,0,1,2.72.91,3.89,3.89,0,0,1,.91,2.84,3.85,3.85,0,0,1-.94,2.81,4.23,4.23,0,0,1-5.37,0,5,5,0,0,1,0-5.69A3.67,3.67,0,0,1,88.17,132.39Zm1.17,2.13a1.39,1.39,0,0,0-1.17-.48,1.37,1.37,0,0,0-1.17.48,2.86,2.86,0,0,0-.35,1.62,2.76,2.76,0,0,0,.37,1.6,1.53,1.53,0,0,0,2.31,0,2.56,2.56,0,0,0,.4-1.57A2.6,2.6,0,0,0,89.34,134.52Zm11.74-2.09a5.27,5.27,0,0,0-1.15.13,6.84,6.84,0,0,0-1.16.37,3.53,3.53,0,0,0-2.09-.5,9.16,9.16,0,0,0-2,.25,6.76,6.76,0,0,0-1.66.55v6.48H95.1v-5.32a2.27,2.27,0,0,1,1-.24c.91,0,1.37.41,1.37,1.22v4.34H99.6V135c0-.13,0-.31,0-.53a1.65,1.65,0,0,1,1-.27c.92,0,1.38.41,1.38,1.22v4.34H104V135a2.38,2.38,0,0,0-.71-1.94A3.44,3.44,0,0,0,101.08,132.43Zm-3.21,14.25H95.68v1.95h-1v1.59h1v3.54a2.17,2.17,0,0,0,.61,1.66,2.61,2.61,0,0,0,1.83.57,2.74,2.74,0,0,0,1.3-.29v-1.78a1.38,1.38,0,0,1-.42.21,1.28,1.28,0,0,1-.46.08A.67.67,0,0,1,98,154a.83.83,0,0,1-.15-.54v-3.28h1.55v-1.59H97.87Zm-4.16,6H89a1.74,1.74,0,0,0,2,1.47,3.85,3.85,0,0,0,1-.14,10,10,0,0,0,1.06-.39v1.79a6.63,6.63,0,0,1-2.58.48,4,4,0,0,1-1.89-.44,3.14,3.14,0,0,1-1.26-1.27,4.78,4.78,0,0,1,.47-4.81,3.35,3.35,0,0,1,2.61-1Q93.76,148.39,93.71,152.71Zm-2.07-1.33a2,2,0,0,0-.4-1.07,1.15,1.15,0,0,0-.89-.33c-.75,0-1.19.47-1.33,1.4Zm9.37-2.66v7h2.1l0-7Zm-18.65-9a4.38,4.38,0,0,0,1-.4v-1.78a3.86,3.86,0,0,1-1.83.56,2.07,2.07,0,0,1-1.58-.52,2.26,2.26,0,0,1-.48-1.59,1.77,1.77,0,0,1,.52-1.42,2.08,2.08,0,0,1,1.44-.46,3.13,3.13,0,0,1,.9.14,7,7,0,0,1,1,.38v-1.79a4.89,4.89,0,0,0-1.06-.33,6.16,6.16,0,0,0-1.19-.12,3.69,3.69,0,0,0-2.69,1,3.83,3.83,0,0,0-1,2.87,3.7,3.7,0,0,0,.5,2,3.09,3.09,0,0,0,1.33,1.23,4.28,4.28,0,0,0,1.88.4A5,5,0,0,0,82.36,139.76Zm-7,8.82a7.11,7.11,0,0,0-1.18.38,3,3,0,0,0-.73.41v6.34h2.08v-5.47a6.42,6.42,0,0,1,1.08-.07,8.16,8.16,0,0,1,1.61.12v-1.52a2.66,2.66,0,0,0-1.61-.35A5,5,0,0,0,75.41,148.58Zm-10.08-9.1a3.14,3.14,0,0,1-1.26-1.27,4,4,0,0,1-.45-1.94,4.14,4.14,0,0,1,.92-2.87,3.35,3.35,0,0,1,2.61-1q3.31,0,3.28,4.32H65.75a1.73,1.73,0,0,0,2,1.47,3.86,3.86,0,0,0,1-.14,10.88,10.88,0,0,0,1.06-.39v1.79a6.66,6.66,0,0,1-2.58.48A3.94,3.94,0,0,1,65.33,139.48Zm.41-4.1h2.61a1.87,1.87,0,0,0-.4-1.07,1.12,1.12,0,0,0-.88-.33C66.32,134,65.88,134.45,65.74,135.38Zm10.31-.68H71.78v1.44h4.27Zm-4.36,16.19,0,3.35a1.36,1.36,0,0,1-.88,1.28,6.2,6.2,0,0,1-2.53.4c-2.08,0-3.11-.81-3.11-2.42a2.07,2.07,0,0,1,.63-1.6,2.78,2.78,0,0,1,1.9-.57,4.12,4.12,0,0,1,1,.13,3.84,3.84,0,0,1,.89.34v-.44c0-.82-.52-1.22-1.56-1.22a3.89,3.89,0,0,0-1.24.21,3.23,3.23,0,0,0-1,.53V149A3.58,3.58,0,0,1,67,148.6a7.31,7.31,0,0,1,1.67-.18,4.29,4.29,0,0,1,2.11.53A2,2,0,0,1,71.69,150.89Zm-2.08,2a3.29,3.29,0,0,0-1.07-.17,2,2,0,0,0-1,.2.73.73,0,0,0-.31.64.8.8,0,0,0,.33.66,1.23,1.23,0,0,0,.78.25,3.24,3.24,0,0,0,1-.1.37.37,0,0,0,.28-.39Zm16.68-4.24H83.76l-2.15,2.61,0-5.29h-2.1v9.76H81.6v-2.93l2.22,2.93h2.64l-3.11-4Zm-25.51-.2a5.35,5.35,0,0,0-1.16.13,6.73,6.73,0,0,0-1.15.37,3.55,3.55,0,0,0-2.09-.5,9,9,0,0,0-2,.25,6.86,6.86,0,0,0-1.67.55v6.48H54.8v-5.32a2.26,2.26,0,0,1,1-.24c.92,0,1.38.41,1.38,1.22v4.34h2.08V151c0-.13,0-.31,0-.53a1.7,1.7,0,0,1,1-.27c.91,0,1.37.41,1.37,1.22v4.34h2.09V151A2.35,2.35,0,0,0,63,149,3.41,3.41,0,0,0,60.78,148.43Zm47.85,0a9,9,0,0,0-2,.25,6.71,6.71,0,0,0-1.67.55v6.48h2.09v-5.32a2.39,2.39,0,0,1,.5-.17,3.38,3.38,0,0,1,.63-.07c.92,0,1.37.41,1.37,1.22v4.34h2.09V151a2.27,2.27,0,0,0-.76-1.93A3.62,3.62,0,0,0,108.63,148.43Zm34.09-8.51a3.94,3.94,0,0,1-1.89-.44,3.14,3.14,0,0,1-1.26-1.27,4,4,0,0,1-.45-1.94,4.14,4.14,0,0,1,.92-2.87,3.35,3.35,0,0,1,2.61-1q3.32,0,3.27,4.32h-4.67a1.73,1.73,0,0,0,2,1.47,3.86,3.86,0,0,0,1-.14,9.88,9.88,0,0,0,1-.39v1.79A6.58,6.58,0,0,1,142.72,139.92Zm-1.49-4.54h2.62a1.87,1.87,0,0,0-.4-1.07,1.13,1.13,0,0,0-.89-.33C141.82,134,141.37,134.45,141.23,135.38Zm-.15,12.28h2.16v-1.61h-2.16Zm16.15,5.05h-4.68a1.73,1.73,0,0,0,2,1.47,3.86,3.86,0,0,0,1-.14,10.88,10.88,0,0,0,1.06-.39v1.79a6.66,6.66,0,0,1-2.58.48,3.94,3.94,0,0,1-1.89-.44,3.14,3.14,0,0,1-1.26-1.27,4,4,0,0,1-.45-1.94,4.14,4.14,0,0,1,.92-2.87,3.35,3.35,0,0,1,2.61-1Q157.26,148.39,157.23,152.71Zm-2.08-1.33a1.87,1.87,0,0,0-.4-1.07,1.12,1.12,0,0,0-.88-.33c-.75,0-1.19.47-1.33,1.4Zm-7.41-4.7h-2.19v1.95h-1v1.59h1v3.54a2.21,2.21,0,0,0,.61,1.66A2.61,2.61,0,0,0,148,156a2.72,2.72,0,0,0,1.3-.29v-1.78a1.38,1.38,0,0,1-.42.21,1.28,1.28,0,0,1-.46.08.69.69,0,0,1-.52-.17.83.83,0,0,1-.15-.54v-3.28h1.55v-1.59h-1.55Zm-10.41,6.16a1.44,1.44,0,0,1-.3,1,1.56,1.56,0,0,1-1.92,0,1.44,1.44,0,0,1-.3-1v-4.21h-2.08V153a2.62,2.62,0,0,0,.89,2.18,3.7,3.7,0,0,0,2.44.73,3.56,3.56,0,0,0,2.38-.72,2.7,2.7,0,0,0,.85-2.19v-4.38h-2Zm3.8-4.12v7h2.1l0-7Zm-7.3-9.23a4.28,4.28,0,0,0,1.88.4,5,5,0,0,0,1.21-.13,4.38,4.38,0,0,0,1-.4v-1.78a3.86,3.86,0,0,1-1.83.56,2.07,2.07,0,0,1-1.58-.52,2.26,2.26,0,0,1-.48-1.59,1.77,1.77,0,0,1,.52-1.42,2.08,2.08,0,0,1,1.44-.46,3.13,3.13,0,0,1,.9.14,7,7,0,0,1,1,.38v-1.79a4.89,4.89,0,0,0-1.06-.33,6.16,6.16,0,0,0-1.19-.12,3.7,3.7,0,0,0-2.69,1,3.83,3.83,0,0,0-1,2.87,3.7,3.7,0,0,0,.5,2A3.09,3.09,0,0,0,133.83,139.49Zm-8.72-2.78h-4.67a1.73,1.73,0,0,0,2,1.47,3.86,3.86,0,0,0,1-.14,9.88,9.88,0,0,0,1-.39v1.79a6.58,6.58,0,0,1-2.57.48,3.94,3.94,0,0,1-1.89-.44,3.14,3.14,0,0,1-1.26-1.27,4,4,0,0,1-.45-1.94,4.14,4.14,0,0,1,.92-2.87,3.35,3.35,0,0,1,2.61-1Q125.16,132.39,125.11,136.71ZM123,135.38a1.87,1.87,0,0,0-.4-1.07,1.13,1.13,0,0,0-.89-.33c-.74,0-1.19.47-1.33,1.4Zm-9.68-1.23c.91,0,1.37.41,1.37,1.22v4.34h2.08V135a2.35,2.35,0,0,0-.71-1.94,3.44,3.44,0,0,0-2.2-.58,5.27,5.27,0,0,0-1.15.13,6.84,6.84,0,0,0-1.16.37,3.53,3.53,0,0,0-2.09-.5,9.16,9.16,0,0,0-2,.25,6.76,6.76,0,0,0-1.66.55v6.48h2.08v-5.32a2.3,2.3,0,0,1,1-.24c.91,0,1.37.41,1.37,1.22v4.34h2.09V135c0-.13,0-.31,0-.53A1.66,1.66,0,0,1,113.36,134.15Zm6.75,16.18v5.46a2.8,2.8,0,0,1-.94,2.26,4.09,4.09,0,0,1-2.67.78,9,9,0,0,1-1.57-.12,3.69,3.69,0,0,1-1.05-.34v-1.83a6.21,6.21,0,0,0,1.13.37,5.41,5.41,0,0,0,1.4.19,1.79,1.79,0,0,0,1.28-.37,1.35,1.35,0,0,0,.37-1v-.41a2.63,2.63,0,0,1-1.79.62A3.17,3.17,0,0,1,114,155a3.62,3.62,0,0,1-.82-2.58,3.93,3.93,0,0,1,1-3.09,4.42,4.42,0,0,1,2.95-.87,4.1,4.1,0,0,1,2.17.5A1.56,1.56,0,0,1,120.11,150.33Zm-2,.47c0-.48-.37-.72-1.12-.72-1.14,0-1.7.73-1.7,2.19a2.52,2.52,0,0,0,.42,1.53,1.37,1.37,0,0,0,1.14.57,2.42,2.42,0,0,0,1.26-.33Zm10.43-18.22a7,7,0,0,0-1.17.38,3.08,3.08,0,0,0-.74.41v6.34h2.09v-5.47a6.42,6.42,0,0,1,1.08-.07,8.23,8.23,0,0,1,1.61.12v-1.52a2.68,2.68,0,0,0-1.61-.35A5.12,5.12,0,0,0,128.49,132.58Zm1.71,19.23a8.57,8.57,0,0,0-1.11-.36,3.84,3.84,0,0,1-.89-.33.53.53,0,0,1-.28-.51.51.51,0,0,1,.25-.45,1.45,1.45,0,0,1,.77-.16,2.14,2.14,0,0,1,.91.17,11.47,11.47,0,0,1,1.11.56v-1.64a4.08,4.08,0,0,0-1-.46,5.66,5.66,0,0,0-1.37-.14,3.72,3.72,0,0,0-1.32.24,2.41,2.41,0,0,0-1.06.78,2.12,2.12,0,0,0-.42,1.36,2,2,0,0,0,.53,1.47,2.67,2.67,0,0,0,1.33.67,7,7,0,0,1,1.12.33.51.51,0,0,1,.35.48.52.52,0,0,1-.21.44,1.17,1.17,0,0,1-.69.16,3.91,3.91,0,0,1-2.39-.85v1.83a10.16,10.16,0,0,0,1.12.39,4.63,4.63,0,0,0,1.18.13,4.13,4.13,0,0,0,2.24-.55,2,2,0,0,0,.91-1.76,2,2,0,0,0-.32-1.2A1.94,1.94,0,0,0,130.2,151.81ZM182.29,50.58h2.45V48.41h-2.45Zm-47.73,6.75h-6.22V80.27h6.22ZM194.38,56a4.05,4.05,0,1,1-4-4.11A3.84,3.84,0,0,1,194.38,56Zm-2.24,0a1.84,1.84,0,1,0-3.62,0c0,1.29.73,2.13,1.81,2.13S192.14,57.25,192.14,56ZM50.81,80.27v-20h-.06l-13.84,20H29.16L48.26,53l8.75,0V71.39l9.83-14.06,8.75,0V71.14l9.24-13.79H89.2l4.38,0v0h0V67.59l7.7-10.26h7.31L100.06,68.8l5.22,6.42,12-17.87,8.75,0v23h-6.19l-8.06-4-2.38,4H101.8l-8.19-10v10H87.38l-8.06-4-2.39,4H69.39V64.67H69.3L58.55,80.27ZM115,71.44,119.81,74V63.7h-.07Zm-32.43,0L87.38,74V63.7h-.06Zm84.35-14.09,8.74,0v23h-6.19l-8.06-4-2.39,4h-7.7l-4.49-7.34h-3.52v7.34H137V57.33h19.67v1.09c0,6.69-5.5,12-5.5,12l3.38,5.3Zm-17.41,5h-6.2v5.54h.47C146.15,67.88,149.47,64.58,149.47,62.34Zm19.9,1.36-4.79,7.74L169.43,74V63.7Zm8.46-3.89h2.36v-2.5h-2.36Zm4.49,0h2.37V52.1h-2.37Z"/></g></g></g></g></g></svg>