<svg xmlns="http://www.w3.org/2000/svg" viewBox="0 0 512 512">
    <path d="M503.045 511.973H8.307c0-106.058 85.977-192.033 192.034-192.033h110.67c106.057 0 192.034 85.975 192.034 192.033z" fill="#ed7149"/>
    <path d="M311.011 319.94c106.058 0 192.034 85.976 192.034 192.033H256.077l.273-192.034h54.66v.001z" fill="#e94e1b"/>
    <path fill="#f9b233" d="M112.326 335.943h32.458v176.034h-32.458zM368.372 335.943h32.458v176.034h-32.458z"/>
    <path d="M392.375 135.907h-31.099c-27.119 0-49.103-21.985-49.103-49.103V56.098c0-22.208 18.004-40.213 40.213-40.213h1.38c21.322 0 38.608 17.286 38.608 38.608v81.414z" fill="#cbbba0"/>
    <path d="M312.361 15.885h-.188v73.041c0 25.946 21.034 46.981 46.981 46.981h33.222v-24.005H360.37c-.001 0-48.481 4.862-48.009-96.017z" fill="#988c78"/>
    <path d="M209.674 135.907h-97.827V97.344c0-49.408 40.052-89.46 89.46-89.46H312.36V33.22c.001 56.712-45.974 102.687-102.686 102.687z" fill="#cbbba0"/>
    <path d="M312.361 7.884v26.132c0 56.273-45.618 101.891-101.891 101.891h-98.624v-26.132h96.496c.001-.001 90.775 10.183 104.019-101.891" fill="#988c78"/>
    <path d="M359.153 135.907c-14.063 0-26.648-6.212-35.257-16.004h-58.758c-15.807 10.082-34.528 16.004-54.666 16.004H136.33v200.035c0 66.286 53.735 120.022 120.022 120.022s120.022-53.736 120.022-120.022V135.907h-17.221z" fill="#f3d1bb"/>
    <path d="M384.374 175.913c13.257 0 24.004 10.748 24.004 24.004 0 13.257-10.747 24.004-24.004 24.004" fill="#e8c0a8"/>
    <path d="M128.328 223.921c-13.257 0-24.004-10.747-24.004-24.004s10.747-24.004 24.004-24.004" fill="#f3d1bb"/>
    <path d="M359.153 135.804c-25.946 0-46.979-13.958-46.979-39.904V55.79h-2.227c-6.624 30.242-26.675 55.393-53.594 69.01v331.164c66.287 0 120.022-53.736 120.022-120.022V135.804h-17.222z" fill="#e8c0a8"/>
    <path d="M376.372 335.942c0 66.287-53.736 120.022-120.022 120.022s-120.02-53.736-120.02-120.022v-24.004s37.007 19.003 72.013 0h96.017s38.007 17.003 72.013 0v24.004h-.001z" fill="#cbbba0"/>
    <path d="M256.351 455.963c66.286 0 120.022-53.735 120.022-120.022v-24.004c-34.006 17.003-72.013 0-72.013 0s15.002 125.022-48.009 144.026" fill="#988c78"/>
    <path fill="#1d1d1b" d="M200.464 183.917h15.767v48.009h-15.767zM296.475 183.917h15.767v48.009h-15.767z"/>
    <path fill="#cbbba0" d="M183.635 176.034h40.006v15.767h-40.006zM287.656 176.034h40.006v15.767h-40.006z"/>
    <path fill="#1d1d1b" d="M248.354 472.086h16.004v15.767h-16.004zM248.354 496.084h16.004v15.767h-16.004z"/>
    <path d="M320.363 335.942c-8.838 0-16.004-7.165-16.004-16.002v-8.001c0-13.257-10.747-24.004-24.004-24.004s-24.004 10.747-24.004 24.004 10.747 24.004 24.004 24.004h40.008" fill="#988c78"/>
    <path d="M192.34 335.942c8.838 0 16.004-7.165 16.004-16.002v-8.001c0-13.257 10.747-24.004 24.004-24.004s24.004 10.747 24.004 24.004-10.747 24.004-24.004 24.004H192.34" fill="#988c78"/>
    <path d="M384.256 322.175V231.79c17.314-.312 31.306-14.485 31.306-31.873s-13.992-31.56-31.306-31.873V143.79h16.002V54.156c0-25.449-20.704-46.153-46.153-46.153-13.066 0-24.966 5.063-33.86 13.322v-8.232c0-7.22-5.873-13.093-13.092-13.093H198.689c-52.232 0-94.727 42.494-94.727 94.727v49.063h24.51l.085 24.24h-.929c-17.583 0-31.887 14.305-31.887 31.887s14.305 31.887 31.887 31.887h1.152l.315 90.153C50.749 347.743.423 421.729.423 511.973H16.19c0-71.172 33.685-131.309 88.287-162.028l.412 162.049 15.767-.04-.432-169.793c2.935-1.261 5.919-2.446 8.954-3.549.281 13.972 2.76 27.566 7.279 40.377L136.895 512l15.767-.053-.336-102.191c4.125 5.865 8.768 11.422 13.91 16.606 23.979 24.173 55.981 37.486 90.115 37.486 42.893 0 80.92-21.225 104.136-53.72v101.847h15.767V380.472c4.848-13.01 7.637-27.014 7.964-41.616 2.793 1.028 5.544 2.133 8.258 3.298l-.432 169.797 15.767.04.412-162.054c21.833 12.293 40.512 29.442 55.01 50.726 21.312 31.284 32.577 69.773 32.577 111.307h15.767c.002-90.107-49.771-163.927-127.321-189.795zm15.539-122.257c0 8.693-6.921 15.782-15.539 16.092v-32.183c8.618.309 15.539 7.398 15.539 16.091zm-45.69-176.15c16.755 0 30.386 13.631 30.386 30.386v73.868H360.08c-22.07 0-40.024-17.956-40.024-40.024v-30.18c0-18.775 15.275-34.05 34.049-34.05zM119.73 94.727c0-43.539 35.421-78.96 78.96-78.96h105.787v19.757c0 51.003-41.495 92.499-92.499 92.499H119.73V94.727zm92.249 49.063c39.099 0 73.422-20.836 92.455-51.985 1.966 28.993 26.165 51.985 55.647 51.985h8.409v155.75c-30.739 17.652-58.381-1.205-59.586-2.047l-.078.109c-5.258-10.401-16.041-17.553-28.47-17.553-.521 0-1.039.015-1.555.04.928-2.547 1.436-5.295 1.436-8.159v-8.001H264.47v8.001c0 4.477-3.642 8.119-8.119 8.119s-8.119-3.642-8.119-8.119v-8.001h-15.767v8.001c0 2.864.508 5.612 1.436 8.159-.515-.025-1.033-.04-1.555-.04-12.338 0-23.055 7.049-28.354 17.326l-.006-.011c-25.744 17.069-49.955 7.424-59.2 2.469l-.546-156.045h67.738v.002zm36.488 168.147c0 8.889-7.232 16.12-16.12 16.12h-17.541c.92-2.535 1.421-5.27 1.421-8.119v-8.001c0-8.889 7.232-16.12 16.12-16.12s16.12 7.232 16.12 16.12zm31.888-16.12c8.889 0 16.12 7.232 16.12 16.12v8.001c0 2.849.501 5.584 1.421 8.119h-17.541c-8.889 0-16.12-7.232-16.12-16.12s7.231-16.12 16.12-16.12zm-152.726-79.779c-8.889 0-16.12-7.232-16.12-16.12 0-8.888 7.232-16.12 16.12-16.12h.984l.112 32.242h-1.096v-.002zm128.722 232.041c-29.897 0-57.926-11.656-78.921-32.822-11.203-11.293-19.714-24.594-25.215-39.114l-.081-.221c-4.742-12.595-7.222-26.101-7.222-40.009l-.065-18.696c7.222 2.927 16.995 5.676 28.255 5.676 8.439 0 17.711-1.557 27.357-5.729v2.772c0 4.477-3.642 8.119-8.12 8.119v15.767h40.007c9.565 0 18.154-4.239 24.004-10.932 5.85 6.693 14.438 10.932 24.004 10.932h40.007v-15.767c-4.477 0-8.12-3.642-8.12-8.119v-2.978c7.279 3.022 17.3 5.935 28.889 5.935 8.439 0 17.711-1.557 27.357-5.729v18.774c0 14.088-2.619 27.574-7.383 40.007l-.618 1.585c-16.553 41.304-56.991 70.549-104.135 70.549z" fill="#1d1d1b"/>
    <path fill="#1d1d1b" d="M240.344 352.068h32.005v15.767h-32.005z"/>
</svg>
