<svg xmlns="http://www.w3.org/2000/svg" viewBox="0 0 512 512">
    <path d="M358.357 187.733v59.051c.009 29.943 21.666 55.492 51.2 60.416V76.8c0-28.279-22.921-51.2-51.2-51.2H315.69l42.667 85.333v76.8z" fill="#5c3724"/>
    <path d="M366.891 136.533v-17.067c0-61.269-49.664-110.933-110.933-110.933-61.269 0-110.933 49.664-110.933 110.933v42.667h221.867v-25.6z" fill="#70432c"/>
    <path d="M215.509 16.213c-42.496 16.64-70.468 57.617-70.485 103.253v42.667h47.616c-.478-49.57 7.245-98.875 22.869-145.92z" fill="#5c3724"/>
    <path fill="#fedac6" d="M110.891 443.733h34.133V512h-34.133z"/>
    <path fill="#f5c4b0" d="M76.757 443.733h34.133V512H76.757z"/>
    <path fill="#fedac6" d="M366.891 443.733h68.267V512h-68.267z"/>
    <path d="M435.157 403.627c.196-25.984-19.098-48-44.885-51.2l-59.221-7.424-3.755 8.533c-16.939 39.398-62.609 57.609-102.007 40.67-18.261-7.851-32.811-22.409-40.67-40.67l-3.755-8.533-59.221 7.424c-25.788 3.2-45.082 25.216-44.885 51.2v40.107h68.267l-1.792 3.584c-10.052 20.079-15.283 42.231-15.275 64.683h256c.009-22.451-5.222-44.604-15.275-64.683l-1.792-3.584h68.267v-40.107z" fill="#2e6aa3"/>
    <path d="M110.891 355.413c-20.437 7.228-34.108 26.539-34.133 48.213v40.107h34.133v-88.32z" fill="#245e8f"/>
    <path d="M255.957 401.067c31.044.017 59.11-18.483 71.339-47.019l3.755-8.533-17.067-2.133c-8.585-1.084-15.002-8.414-14.933-17.067V281.6h-85.76v44.629c.068 8.653-6.349 15.983-14.933 17.067l-17.493 2.133 3.755 8.533c12.201 28.57 40.276 47.105 71.337 47.105z" fill="#fedac6"/>
    <path d="M298.624 328.875V281.6h-85.333v47.275c32 16.64 53.333 16.64 85.333 0z" fill="#f5c4b0"/>
    <path d="M136.491 462.592c-5.803 15.821-8.695 32.555-8.533 49.408h57.003c-22.674-8.482-40.423-26.573-48.47-49.408z" fill="#245e8f"/>
    <circle cx="307.157" cy="162.133" r="17.067"/>
    <path d="M253.261 221.431l-25.6-8.533c-2.347-.785-4.241-2.543-5.18-4.83-.947-2.287-.853-4.873.247-7.083l25.6-51.2 15.266 7.637-21.197 42.402 16.265 5.419-5.401 16.188z"/>
    <circle cx="196.224" cy="162.133" r="17.067"/>
    <path d="M349.824 136.533l-1.621 66.389c.247 35.849-20.139 68.651-52.395 84.309l-17.067 8.533 16.128-8.107-16.128 8.107c-14.396 7.185-31.343 7.185-45.739 0l-17.067-8.533c-32.256-15.659-52.642-48.461-52.395-84.309l-1.451-57.856 21.163-49.408c2.697-6.272 8.875-10.334 15.701-10.325h114.688c6.477 0 12.39 3.669 15.275 9.472l20.908 41.728z" fill="#fedac6"/>
    <path d="M127.957 162.133c0 14.14 11.46 25.6 25.6 25.6h17.067v-51.2h-17.067c-14.139 0-25.6 11.461-25.6 25.6z" fill="#f5c4b0"/>
    <path d="M358.357 136.533H341.29v51.2h17.067c14.14 0 25.6-11.46 25.6-25.6 0-14.139-11.46-25.6-25.6-25.6z" fill="#fedac6"/>
    <path d="M196.224 212.821c-4.531-42.496-3.004-85.419 4.523-127.488h-1.792c-6.972-.137-13.321 3.985-16.043 10.411l-20.821 49.323 1.621 57.856c-.247 35.849 20.139 68.651 52.395 84.309l3.072 1.621-5.888-11.093c-11.264-19.883-13.483-40.021-17.067-64.939z" fill="#f5c4b0"/>
    <circle cx="307.157" cy="162.133" r="17.067"/>
    <path d="M253.261 221.431l-25.6-8.533c-2.347-.785-4.241-2.543-5.18-4.83-.947-2.287-.853-4.873.247-7.083l25.6-51.2 15.266 7.637-21.197 42.402 16.265 5.419-5.401 16.188z"/>
    <circle cx="196.224" cy="162.133" r="17.067"/>
    <path d="M324.745 273.067h-.521V256zM153.557 145.067H136.49v-25.6C136.491 53.589 190.08 0 255.957 0s119.467 53.589 119.467 119.467v17.067h-17.067v-17.067c0-56.465-45.935-102.4-102.4-102.4s-102.4 45.935-102.4 102.4v25.6z"/>
    <path d="M255.863 309.649c-9.165 0-18.321-2.082-26.667-6.246l-17.075-8.533c-34.927-16.956-57.378-53.086-57.105-92.006l-.154-6.596h-1.306c-18.825 0-34.133-15.309-34.133-34.133S134.733 128 153.557 128h8.533c4.642 0 8.431 3.712 8.533 8.346l1.451 66.389c-.222 32.623 18.458 62.686 47.582 76.826l17.161 8.576c11.921 5.948 26.18 5.939 38.101 0l16.119-8.098c.247-.128.503-.23.751-.333l.196-.102c29.218-14.182 47.898-44.245 47.684-76.621l1.613-66.654c.119-4.625 3.9-8.329 8.533-8.329h8.533c18.825 0 34.133 15.309 34.133 34.133s-15.309 34.133-34.133 34.133h-1.451l-.171 6.861c.256 38.656-22.195 74.786-57.207 91.776l-16.973 8.491-.051.026c-8.335 4.155-17.483 6.229-26.631 6.229zM357.325 179.2h1.033c9.412 0 17.067-7.654 17.067-17.067 0-9.412-7.654-17.067-17.067-17.067h-.205l-.828 34.134zm-203.768-34.133c-9.412 0-17.067 7.654-17.067 17.067 0 9.412 7.654 17.067 17.067 17.067h.93l-.93-34.134zM247.424 85.333h-17.067c0-11.008-10.522-24.021-14.575-28.109l12.083-12.058c1.997 1.998 19.559 20.14 19.559 40.167zM281.557 85.333H264.49c0-20.028 17.57-38.17 19.567-40.166l12.075 12.058c-4.045 4.087-14.575 17.1-14.575 28.108zM321.997 91.076l-12.621-11.494c5.871-6.451 13.892-10.462 22.571-11.281l1.613 16.99c-4.438.426-8.542 2.483-11.563 5.785zM198.443 91.076c-3.012-3.302-7.108-5.359-11.554-5.777l1.604-16.99c8.687.819 16.7 4.83 22.579 11.29l-12.629 11.477z"/>
    <path d="M187.088 105.578l-17.07 42.66-15.845-6.34 17.07-42.66zM357.452 132.713l-15.264 7.632-17.065-34.13 15.264-7.632z"/>
    <path d="M409.557 315.733c-.469 0-.93-.043-1.399-.119-33.792-5.632-58.325-34.586-58.334-68.83v-59.051h17.067v59.051c.009 22.374 13.875 41.762 34.133 49.34V76.8c0-23.526-19.14-42.667-42.667-42.667H315.69V17.067h42.667c32.93 0 59.733 26.795 59.733 59.733v230.4c0 2.509-1.101 4.89-3.021 6.511-1.544 1.314-3.506 2.022-5.512 2.022zM261.001 247.467h-22.11V230.4h22.101c5.402 0 10.701-2.202 14.524-6.033l12.083 12.058c-6.997 7.014-16.691 11.042-26.598 11.042zM85.291 512H68.224V403.627c-.23-30.251 22.281-55.927 52.369-59.665l76.8-9.557c4.275-.538 7.484-4.207 7.458-8.533v-35.738h17.067v35.669c.102 12.919-9.532 23.927-22.4 25.532l-76.809 9.557c-21.495 2.671-37.572 21.018-37.41 42.667V512h-.008zM443.776 512h-17.067V404.053c.171-21.717-15.915-40.055-37.402-42.735l-76.8-9.549c-12.885-1.621-22.519-12.629-22.417-25.6v-36.036h17.067v36.096c-.034 4.395 3.174 8.055 7.467 8.602l76.783 9.549c30.089 3.738 52.599 29.423 52.369 59.733V512z"/>
    <path d="M256 409.6h-.094c-34.483 0-65.545-20.48-79.13-52.19l-5.461-12.706 15.684-6.733 5.461 12.715c10.897 25.421 35.806 41.847 63.454 41.847h.077c27.665 0 52.574-16.418 63.471-41.839l5.461-12.723 15.684 6.733-5.461 12.715C321.562 389.12 290.492 409.6 256 409.6zM119.424 512c0-23.654 5.589-47.343 16.179-68.497l.887-1.783v-23.586h17.067v25.6c0 1.323-.307 2.637-.896 3.814l-1.792 3.584c-9.412 18.799-14.379 39.851-14.379 60.868h-17.066z"/>
    <path d="M76.757 435.2h68.267v17.067H76.757zM366.891 435.2h68.267v17.067h-68.267z"/>
    <path d="M392.491 512h-17.067c.009-21.018-4.958-42.061-14.379-60.868l-1.792-3.584c-.589-1.186-.896-2.492-.896-3.814v-25.6h17.067v23.586l.887 1.783c10.599 21.163 16.188 44.851 16.18 68.497z"/>
</svg>
